<svg version="1.2" xmlns="http://www.w3.org/2000/svg" viewBox="0 0 1280 280" width="1280" height="280">
	<path id="Path 2" fill-rule="evenodd" fill="currentColor" d="m103.2 75.8l-23.4 140.2-19.1-3.5 33.7-177.9 16.3-15.8 34.1 193.7-17.5 3.5zm589.3 100l-8.8 6.8 4.3 13.9-11.3-8.6-11.2 8.6 4.3-13.9-10.9-8.3-7 41.6-19-3.4 33.6-177.9 16.4-15.9 34.1 193.8-17.6 3.4zm-15.8-15.8l4.3 14h11.2l-16.9-98.2-16.4 98.2h13.5zm-573.5 47.6l-17.9-23.7h35.4zm119.9 11l-44.3-90.4 42.4-109 16.1 7.1-41 101.4 41.9 82.8zm-64.8-193.7h18.1v187.7h-18.1zm122.9 133.8l17.5-116.1 23.4 116.1 16.6-136.5 16.8 3.1-25.8 193.8-16.2-15.6-12.8-87.5-12 103.1-15.6-15.6-30.9-178.2 19-2.2zm121.4-82.8l-23.4 140.1-19.1-3.4 33.7-177.9 16.3-15.9 34.1 193.8-17.5 3.4zm0 131.9l-17.9-23.7h35.4zm90.5-131.8l-23.4 140.1-19.1-3.4 33.7-177.9 16.3-15.9 34.1 193.8-17.5 3.4zm0 131.9l-17.9-23.6h35.4zm83.1 5.3h-28v-188.2h24.4q13.4 0 19.4 2.7 5.9 2.7 11.5 9.8 10 12.9 10 35.3v17.6q0 28-11.9 34.3 21.4 4.7 21.4 39.1v6q0 24-13.6 33.7-13.8 9.7-33.2 9.7zm-10-18.5h8.6q15.1-0.5 22.6-4.9 7.4-4.4 7.4-24.6-0.1-19.3-6.6-23.9-6.6-4.4-18.6-4.4h-13.4zm0-75.8h4.4q13.9 0 19.3-7.3 5.4-7.1 5.3-30.7 0-14.9-2.3-22.9-2.5-7.8-7.9-10.9-5.4-3.3-13.9-3.3h-4.9zm249 18.6v74.8h-18.5v-74.8h-15.1l6.5-19h8.6v-93.4h52.4l6.6 19h-41v74.4h31.9v19zm135.3-18.6q0 21.5-1 36.1c-0.6 9.8-2.2 19.5-4.9 29.1q-4.1 14.5-12.9 23.4c-5.8 5.8-13.5 8.7-23.1 8.7q-19.3 0-28.3-14.6-9.2-14.6-11.7-35.1-2.4-20.4-2.4-47.6 0-26.8 2.4-47.2c1.6-13.6 5.5-25.1 11.7-34.9q9.3-14.4 28.3-14.4 18.7 0 28 14.4 9.3 14.4 11.7 33.9 2.2 19.5 2.2 48.2zm-41.9-78h-0.5q-11 0-16.1 11.8-5.1 11.9-6.1 27.7-1.2 16.1-1.2 38.5 0 22.7 1.4 38.6 1.3 15.7 6.6 27.7 5.4 12 15.9 12c9.7 0 16.1-7.4 19-22.2 2.9-14.7 4.4-33.3 4.4-56.1q0-35.3-4.1-56.7-4.2-21.3-19.3-21.3zm142.8 78q0 21.5-1 36.1c-0.6 9.8-2.2 19.5-4.9 29.1q-4 14.5-12.9 23.4-8.7 8.7-23.1 8.7-19.3 0-28.3-14.6-9.2-14.6-11.7-35.1-2.4-20.4-2.4-47.6 0-26.8 2.4-47.2c1.7-13.6 5.5-25.1 11.7-34.9q9.3-14.4 28.3-14.4c12.5 0 21.8 4.8 28 14.4q9.3 14.4 11.7 33.9 2.2 19.5 2.2 48.2zm-41.9-78h-0.5q-11 0-16.1 11.8-5.1 11.9-6.1 27.7-1.2 16.1-1.2 38.5 0 22.7 1.4 38.6 1.3 15.7 6.7 27.7 5.3 12 15.8 12c9.8 0 16.1-7.4 19.1-22.2 2.8-14.7 4.3-33.3 4.3-56.1q0-35.3-4.1-56.7-4.2-21.3-19.3-21.3zm59-15.8h34.3q18.3 0 27.6 14.2 9.3 14.1 11.9 33.8 2.5 19.8 2.5 45.8 0 41.7-7.8 67.6-8.1 26-34.6 26.3h-33.9zm18.5 169.1h13.9q15.9 0 20.5-15.6 4.6-15.6 4.6-42.4v-38.7q0-25.1-4.6-39.3-4.9-13.8-20-13.9h-14.4zm121.6-175.2l7.1 17-17 6.8c-11.9 5.1-18.3 13.8-19.3 26.1q0.8 6.2 2.9 12l30 69.4q3.9 8.6 3.9 19.1 0 14.1-9.1 25.8-9.2 11.7-22.4 16.6l-16 6.1-7.3-17.6 16.3-5.6q9-2.9 14.4-10 5.1-6.8 5.1-15.3 0-6.6-2.5-12.7l-29.9-68.7q-3.7-9.1-4.4-19.1 0.5-14.5 8.8-26.1 7.9-11.4 22.6-17.3z"/>
	<path id="Path 3" fill="currentColor" d="m37.9 231.3h389.5v29.4h-389.5z"/>
	<path id="Path 4" fill="currentColor" d="m427.4 231.3h424.1v29.4h-424.1z"/>
	<path id="Path 5" fill="currentColor" d="m851.5 231.3h391.5v29.4h-391.5z"/>
</svg>